<svg width="200" height="200" viewBox="0 0 200 200" xmlns="http://www.w3.org/2000/svg">
  <defs>
    <linearGradient id="nehaGradient" x1="0%" y1="0%" x2="100%" y2="100%">
      <stop offset="0%" style="stop-color:#8B5CF6;stop-opacity:1" />
      <stop offset="100%" style="stop-color:#A855F7;stop-opacity:1" />
    </linearGradient>
  </defs>
  
  <!-- Background circle -->
  <circle cx="100" cy="100" r="90" fill="url(#nehaGradient)" stroke="#7C3AED" stroke-width="2"/>
  
  <!-- Letter N -->
  <path d="M60 140 L60 60 L80 60 L100 100 L120 60 L140 60 L140 140 L120 140 L100 100 L80 140 Z" 
        fill="white" stroke="white" stroke-width="2"/>
  
  <!-- Letter G -->
  <path d="M160 80 A40 40 0 0 0 120 80 L120 120 A40 40 0 0 0 160 120 L160 100 L140 100 L140 120 A20 20 0 0 1 120 120 L120 80 A20 20 0 0 1 140 80 L140 100 L160 100 Z" 
        fill="white" stroke="white" stroke-width="2"/>
  
  <!-- Decorative elements -->
  <circle cx="70" cy="70" r="3" fill="white" opacity="0.8"/>
  <circle cx="130" cy="70" r="3" fill="white" opacity="0.8"/>
  <circle cx="70" cy="130" r="3" fill="white" opacity="0.8"/>
  <circle cx="130" cy="130" r="3" fill="white" opacity="0.8"/>
</svg> 