<svg width="200" height="200" viewBox="0 0 200 200" xmlns="http://www.w3.org/2000/svg">
  <defs>
    <linearGradient id="rahulGradient" x1="0%" y1="0%" x2="100%" y2="100%">
      <stop offset="0%" style="stop-color:#059669;stop-opacity:1" />
      <stop offset="100%" style="stop-color:#10B981;stop-opacity:1" />
    </linearGradient>
  </defs>
  
  <!-- Background circle -->
  <circle cx="100" cy="100" r="90" fill="url(#rahulGradient)" stroke="#047857" stroke-width="2"/>
  
  <!-- Letter R -->
  <path d="M60 140 L60 60 L100 60 A40 40 0 0 1 100 100 L60 140 M80 100 L100 100 A20 20 0 0 0 100 80 L80 80 L80 100" 
        fill="white" stroke="white" stroke-width="2"/>
  
  <!-- Letter S -->
  <path d="M120 80 A40 40 0 0 0 120 120 A40 40 0 0 0 160 120 L160 100 A20 20 0 0 1 140 100 A20 20 0 0 1 160 80 L160 60 A40 40 0 0 0 120 60 A40 40 0 0 0 120 80" 
        fill="white" stroke="white" stroke-width="2"/>
  
  <!-- Decorative elements -->
  <circle cx="75" cy="75" r="3" fill="white" opacity="0.8"/>
  <circle cx="125" cy="75" r="3" fill="white" opacity="0.8"/>
  <circle cx="75" cy="125" r="3" fill="white" opacity="0.8"/>
  <circle cx="125" cy="125" r="3" fill="white" opacity="0.8"/>
</svg> 